<svg width="604" height="173" viewBox="0 0 604 173" fill="none" xmlns="http://www.w3.org/2000/svg">
<path d="M232.28 27.7811L210.667 46.5477C210.564 46.63 210.426 46.6182 210.334 46.5242L207.966 43.6804C207.885 43.5747 207.897 43.4337 207.989 43.3397L229.601 24.573C229.705 24.4907 229.843 24.5025 229.935 24.5965L232.303 27.4403C232.395 27.546 232.383 27.6988 232.28 27.7811Z" fill="white"/>
<path d="M242.946 40.6255L221.334 59.3921C221.23 59.4744 221.092 59.4626 221 59.3686L218.632 56.5248C218.552 56.4191 218.563 56.2781 218.655 56.1841L240.268 37.4174C240.371 37.3351 240.509 37.3469 240.601 37.4409L242.969 40.2847C243.061 40.3787 243.05 40.5315 242.946 40.6255Z" fill="white"/>
<path d="M237.613 34.1973L209.712 58.4165C209.608 58.4988 209.47 58.487 209.378 58.393L207.01 55.5492C206.93 55.4435 206.941 55.3025 207.033 55.2084L234.934 30.9892C235.038 30.907 235.175 30.9187 235.267 31.0127L237.636 33.8565C237.728 33.9623 237.716 34.1151 237.613 34.1973Z" fill="white"/>
<path d="M264.034 3.91416L223.993 17.5338C223.361 17.7571 222.935 18.3916 222.993 19.0732C223.039 19.7665 223.545 20.3306 224.2 20.4481L244.881 24.1615L247.192 45.5016C247.261 46.1832 247.79 46.7355 248.457 46.8295C248.905 46.9 249.353 46.7355 249.664 46.4417C249.813 46.3007 249.94 46.1127 250.02 45.9129L265.862 5.92361C266.08 5.3713 265.965 4.76024 265.574 4.32545C265.183 3.89065 264.574 3.72614 264.034 3.91416Z" fill="white"/>
<path d="M138.39 3.94856L139.792 57.4047H137.102C136.24 55.0898 135.585 53.3388 135.113 52.1402C132.389 44.4902 130.158 38.7909 128.446 35.0422C125.399 28.344 120.996 22.2099 115.225 16.6281C110.857 12.3977 106.339 9.33061 101.66 7.41516C96.9808 5.49972 91.7156 4.54787 85.8641 4.54787C77.0466 4.54787 69.4133 6.49857 62.941 10.4117C57.2504 13.8431 51.9392 18.7668 47.0304 25.183C42.1216 31.5991 38.098 38.9201 34.9825 47.1224C30.5336 58.6856 28.3148 71.8352 28.3148 86.583C28.3148 99.098 29.8323 110.379 32.8788 120.426C35.9252 130.474 40.3627 138.876 46.2142 145.656C56.9745 158.253 71.2526 164.552 89.0256 164.552C97.912 164.552 105.913 162.977 113.006 159.828C120.099 156.679 125.606 152.237 129.503 146.491C134.021 139.875 137.298 130.944 139.332 119.71L142.022 120.191C140.539 132.789 137.183 142.789 131.963 150.204C126.974 157.302 120.088 162.719 111.316 166.468C102.545 170.216 92.3824 172.085 80.8403 172.085C70.08 172.085 59.7795 170.451 49.9619 167.184C34.2813 161.92 22.038 152.413 13.232 138.664C4.42599 124.915 0 108.499 0 89.4502C0 74.8553 2.57512 61.4002 7.72536 49.0849C12.8756 36.7696 20.0491 26.8634 29.246 19.3661C36.3391 13.6315 44.8232 9.06033 54.6868 5.67599C64.5504 2.29164 74.437 0.599472 84.3467 0.599472C93.7849 0.599472 103.764 2.43266 114.294 6.09903L123.882 9.33061C125.755 10.0474 127.388 10.4117 128.79 10.4117C130.745 10.4117 132.343 9.57738 133.584 7.89696C134.125 7.09788 134.791 5.78175 135.573 3.94856H138.39Z" fill="#FC9828"/>
<path d="M153.598 4.30094L187.293 0V133.353L187.408 142.436C187.408 147.854 187.718 151.825 188.339 154.317C188.96 156.831 190.167 158.923 191.96 160.592C194.144 162.742 198.157 164.376 204.008 165.492V168.007H152.299V165.492C156.978 164.857 160.334 163.953 162.358 162.801C164.381 161.649 166.025 159.687 167.267 156.902C168.129 155.069 168.727 152.295 169.083 148.594C169.439 144.904 169.612 139.545 169.612 132.553V38.8259C169.612 30.6941 169.416 24.9713 169.025 21.6222C168.635 18.2731 167.772 15.5586 166.45 13.5139C165.128 11.2811 163.53 9.68298 161.657 8.73114C159.783 7.77929 157.093 7.17998 153.586 6.9332V4.30094H153.598Z" fill="#FC9828"/>
<path d="M211.621 68.8732L245.316 64.5722V133.446L245.431 142.494C245.431 147.9 245.741 151.837 246.362 154.351C246.983 156.866 248.19 158.934 249.983 160.615C252.167 162.742 256.179 164.387 262.031 165.503V168.018H210.322V165.503C215.001 164.869 218.357 163.987 220.381 162.836C222.404 161.684 224.048 159.71 225.29 156.937C226.152 155.127 226.75 152.354 227.106 148.664C227.462 144.974 227.635 139.651 227.635 132.659V103.281C227.635 95.1136 227.439 89.3672 227.048 86.0769C226.658 82.7866 225.795 80.119 224.473 78.0508C223.151 75.8416 221.553 74.22 219.679 73.2446C217.806 72.2458 215.116 71.6347 211.609 71.3879V68.8732H211.621Z" fill="#FC9828"/>
<path d="M276.433 168.006V134.163H278.307C280.492 142.459 283.216 149.075 286.481 154.011C292.47 163.024 299.472 167.524 307.484 167.524C312.382 167.524 316.624 166.009 320.21 162.977C324.096 159.628 326.039 154.88 326.039 148.746C326.039 143.728 324.636 139.333 321.843 135.596C320.279 133.599 318.325 131.766 315.945 130.097C313.577 128.428 309.588 126.066 303.99 123.046C294.195 117.699 287.654 113.246 284.389 109.65C279.721 104.55 277.388 98.6507 277.388 91.9525C277.388 84.7725 279.733 78.6031 284.412 73.4209C289.792 67.5218 296.931 64.5722 305.817 64.5722C309.795 64.5722 313.497 65.289 316.934 66.7227L320.912 68.5206C322.165 69.0024 323.257 69.2374 324.188 69.2374C325.671 69.2374 327.074 68.0388 328.396 65.6533H330.741L332.028 92.7986H329.568C328.706 88.9677 327.798 85.9006 326.832 83.5856C325.855 81.2707 324.476 79.0379 322.694 76.8875C320.291 73.8557 317.486 71.4819 314.29 69.778C311.117 68.0623 307.956 67.2045 304.84 67.2045C300.483 67.2045 296.781 68.8144 293.701 72.046C290.643 75.2776 289.102 79.2377 289.102 83.9499C289.102 87.8513 290.482 91.3884 293.241 94.5378C296 97.6871 300.265 100.578 306.024 103.21L318.394 108.945C325.786 112.376 331.316 116.642 334.971 121.742C338.627 126.842 340.455 132.858 340.455 139.803C340.455 148.17 337.799 155.115 332.5 160.615C326.418 166.996 318.613 170.18 309.105 170.18C303.955 170.18 298.736 169.146 293.425 167.066C289.999 165.715 287.93 164.939 287.228 164.739C286.527 164.54 285.63 164.446 284.538 164.446C281.814 164.446 279.744 165.644 278.342 168.03H276.433V168.006Z" fill="white"/>
<path d="M388.037 0V81.8941C390.762 78.4627 393.187 75.8187 395.291 73.9033C397.395 71.9878 399.936 70.3191 402.89 68.8855C408.581 66.0182 415.053 64.5845 422.307 64.5845C431.515 64.5845 439.114 66.453 445.115 70.2016C449.403 72.9867 452.346 76.3828 453.944 80.4017C455.542 84.4206 456.347 90.4489 456.347 98.4985V133.376L456.462 142.448C456.462 147.865 456.772 151.837 457.393 154.352C458.014 156.867 459.221 158.935 461.014 160.615C463.199 162.766 467.211 164.399 473.062 165.516V168.03H421.399V165.516C425.526 164.963 428.457 164.282 430.216 163.483C431.975 162.684 433.539 161.332 434.941 159.417C436.344 157.442 437.309 154.728 437.861 151.308C438.402 147.877 438.677 142.824 438.677 136.138V98.2517C438.677 92.5289 438.252 87.9929 437.39 84.6438C436.528 81.2947 435.102 78.3805 433.067 75.9362C429.101 71.2357 423.503 68.8855 416.26 68.8855C397.441 68.8855 388.014 84.0915 388.014 114.504V133.611L388.129 142.436C388.129 147.854 388.44 151.825 389.06 154.34C389.681 156.855 390.888 158.923 392.682 160.604C394.854 162.754 398.867 164.387 404.707 165.504V168.019H353.043V165.504C357.722 164.869 361.079 163.964 363.102 162.813C365.126 161.661 366.77 159.699 368.011 156.914C368.873 155.08 369.471 152.307 369.827 148.606C370.184 144.916 370.356 139.557 370.356 132.565V38.8259C370.356 30.6941 370.161 24.9713 369.77 21.6222C369.379 18.2731 368.517 15.5586 367.195 13.5139C365.873 11.2811 364.275 9.68298 362.401 8.73114C360.527 7.77929 357.837 7.17998 354.331 6.9332V4.30094L388.037 0Z" fill="white"/>
<path d="M578.712 156.408L580.701 157.606C577.896 165.973 571.458 170.157 561.399 170.157C555.846 170.157 551.236 168.758 547.581 165.973C545.166 164.14 542.66 160.956 540.085 156.408C534.854 161.191 530.9 164.34 528.256 165.856C523.174 168.723 517.277 170.157 510.563 170.157C501.976 170.157 495.159 168.041 490.123 163.823C485.088 159.604 482.57 153.893 482.57 146.725C482.57 140.109 484.64 134.562 488.767 130.109C491.112 127.641 493.802 125.667 496.837 124.186C499.883 122.705 504.286 121.213 510.057 119.697C516.84 117.946 521.852 116.465 525.094 115.267C528.336 114.068 531.038 112.635 533.222 110.966C535.717 109.133 537.43 106.982 538.372 104.515C539.303 102.047 539.775 98.6154 539.775 94.2322C539.775 84.9018 538.062 78.0861 534.625 73.7852C533.061 71.7875 531.061 70.201 528.601 69.0024C526.14 67.8038 523.588 67.2045 520.933 67.2045C517.737 67.2045 514.886 68.0388 512.391 69.7192C509.896 71.3879 508.023 73.7029 506.781 76.6524L503.861 83.5856C502.298 87.3343 499.493 89.2027 495.434 89.2027C492.779 89.2027 490.56 88.3096 488.767 86.5117C486.973 84.7138 486.077 82.4693 486.077 79.7548C486.077 75.6889 488.882 72.2575 494.515 69.4725C497.561 68.0388 501.32 66.8637 505.815 65.9471C510.31 65.0305 514.702 64.5722 518.99 64.5722C523.83 64.5722 528.876 65.2068 534.107 66.4877C539.338 67.7685 543.718 69.402 547.224 71.3879C552.305 74.3375 555.467 78.1683 556.72 82.8688C557.341 85.2661 557.651 89.285 557.651 94.9491V139.192C557.651 146.69 557.962 151.79 558.582 154.504C559.904 160.168 563.1 162.988 568.17 162.988C570.584 162.988 572.481 162.554 573.849 161.672C575.217 160.791 576.838 159.04 578.712 156.408ZM539.993 109.297C535.797 112.881 531.176 116.031 526.106 118.745C520.427 121.859 516.518 124.21 514.334 125.796C512.161 127.394 510.184 129.298 508.391 131.531C504.735 136.149 502.907 141.531 502.907 147.677C502.907 152.941 504.332 157.277 507.16 160.709C510.011 164.14 513.598 165.856 517.955 165.856C521.772 165.856 525.359 164.645 528.75 162.213C532.118 159.78 534.682 156.537 536.383 152.471C538.786 147.124 540.005 139.392 540.005 129.274V109.297H539.993Z" fill="white"/>
<path d="M601.175 136.326C598.106 133.389 593.277 133.541 590.403 136.679C588.69 138.547 588.047 141.062 588.472 143.412L575.826 148.054C575.47 147.431 575.01 146.844 574.47 146.315C573.734 145.61 572.895 145.081 572.01 144.729L575.091 130.11C577.24 130.216 579.436 129.393 581.022 127.666C583.897 124.528 583.747 119.593 580.678 116.655C577.608 113.717 572.78 113.87 569.906 117.008C567.032 120.145 567.181 125.081 570.251 128.018C570.963 128.7 571.757 129.217 572.607 129.558L569.515 144.212C567.4 144.141 565.261 144.964 563.698 146.668C560.824 149.805 560.973 154.741 564.043 157.678C567.112 160.616 571.941 160.463 574.815 157.326C576.562 155.422 577.194 152.86 576.734 150.475L589.346 145.845C589.714 146.515 590.185 147.126 590.76 147.678C593.829 150.616 598.657 150.463 601.531 147.326C604.394 144.2 604.245 139.264 601.175 136.326ZM571.987 126.126C569.94 124.164 569.837 120.874 571.757 118.782C573.677 116.69 576.895 116.584 578.942 118.547C580.988 120.509 581.091 123.8 579.172 125.891C577.252 127.983 574.033 128.089 571.987 126.126ZM572.964 155.551C571.044 157.643 567.825 157.749 565.779 155.786C563.732 153.824 563.629 150.534 565.549 148.442C567.469 146.35 570.688 146.245 572.734 148.207C574.78 150.169 574.872 153.46 572.964 155.551ZM599.669 145.563C597.749 147.655 594.53 147.76 592.484 145.798C590.438 143.836 590.334 140.545 592.254 138.453C594.174 136.362 597.393 136.256 599.439 138.218C601.485 140.181 601.589 143.471 599.669 145.563Z" fill="white"/>
</svg>
